<?xml version="1.0" encoding="UTF-8" standalone="no"?>
<!-- Created with Inkscape (http://www.inkscape.org/) -->

<svg
   xmlns:dc="http://purl.org/dc/elements/1.1/"
   xmlns:cc="http://creativecommons.org/ns#"
   xmlns:rdf="http://www.w3.org/1999/02/22-rdf-syntax-ns#"
   xmlns:svg="http://www.w3.org/2000/svg"
   xmlns="http://www.w3.org/2000/svg"
   xmlns:sodipodi="http://sodipodi.sourceforge.net/DTD/sodipodi-0.dtd"
   xmlns:inkscape="http://www.inkscape.org/namespaces/inkscape"
   width="50"
   height="50"
   viewBox="0 0 50 50"
   id="svg2"
   version="1.1"
   inkscape:version="0.91pre3 r13670"
   preserveAspectRatio="none"
   sodipodi:docname="gras2.svg">
  <defs
     id="defs4" />
  <sodipodi:namedview
     id="base"
     pagecolor="#ffffff"
     bordercolor="#666666"
     borderopacity="1.0"
     inkscape:pageopacity="0.0"
     inkscape:pageshadow="2"
     inkscape:zoom="15.54"
     inkscape:cx="14.406907"
     inkscape:cy="25"
     inkscape:document-units="px"
     inkscape:current-layer="layer1"
     showgrid="false"
     units="px"
     inkscape:window-width="1920"
     inkscape:window-height="1018"
     inkscape:window-x="-8"
     inkscape:window-y="-8"
     inkscape:window-maximized="1" />
  <metadata
     id="metadata7">
    <rdf:RDF>
      <cc:Work
         rdf:about="">
        <dc:format>image/svg+xml</dc:format>
        <dc:type
           rdf:resource="http://purl.org/dc/dcmitype/StillImage" />
        <dc:title></dc:title>
      </cc:Work>
    </rdf:RDF>
  </metadata>
  <g
     inkscape:label="Ebene 1"
     inkscape:groupmode="layer"
     id="layer1"
     transform="translate(0,-1002.3622)">
    <rect
       style="opacity:1;fill:#00aa00;fill-opacity:1;fill-rule:nonzero;stroke:none;stroke-width:0;stroke-miterlimit:4;stroke-dasharray:none;stroke-opacity:1"
       id="rect4136"
       width="50"
       height="50"
       x="0"
       y="1002.3622" />
    <path
       style="fill:#71aa00;fill-opacity:1"
       d="m 0.03217503,24.98713 0,-24.96782498 24.96782497,0 24.967825,0 0,24.96782498 0,24.967825 -24.967825,0 -24.96782497,0 0,-24.967825 z"
       id="path3334"
       inkscape:connector-curvature="0"
       transform="translate(0,1002.3622)" />
    <path
       style="fill:#88aa00;fill-rule:evenodd;stroke:#7a974e;stroke-width:0.99999988;stroke-linecap:butt;stroke-linejoin:miter;stroke-opacity:1;stroke-miterlimit:4;stroke-dasharray:none"
       d="m 13.256113,1019.2863 c 0.02145,0.086 0.05338,0.1696 0.06435,0.2574 0.0036,0.029 -0.01224,0.4321 0,0.4504 0.03365,0.05 0.09505,0.078 0.1287,0.1287 0.03987,0.06 -0.03246,0.1925 0,0.2574 0.01357,0.027 0.05078,0.037 0.06435,0.064 0.0096,0.019 -0.0096,0.045 0,0.064 0.07687,0.1538 0.1287,0.01 0.1287,0.2574"
       id="path4144"
       inkscape:connector-curvature="0" />
    <path
       style="fill:none;fill-rule:evenodd;stroke:#7a974e;stroke-width:0.99999988;stroke-linecap:butt;stroke-linejoin:miter;stroke-opacity:1;stroke-miterlimit:4;stroke-dasharray:none"
       d="m 23.101673,1017.8706 c -0.02578,0.2046 0.01801,0.3487 0.1287,0.5148 0.0495,0.074 0.14355,0.1188 0.19305,0.193 0.0119,0.018 -0.0096,0.045 0,0.064 0.01357,0.027 0.0429,0.043 0.06435,0.064 0.0429,0.043 0.0858,0.086 0.128701,0.1287 0.130966,0.131 0.1287,-0 0.1287,0.1287"
       id="path4146"
       inkscape:connector-curvature="0" />
    <path
       style="fill:none;fill-rule:evenodd;stroke:#7a974e;stroke-width:1px;stroke-linecap:butt;stroke-linejoin:miter;stroke-opacity:1"
       d="m 14.092664,1026.6865 c -0.0858,0.1073 -0.189257,0.2025 -0.2574,0.3218 -0.02129,0.037 0,0.086 0,0.1287 0,0.086 0.0141,0.1727 0,0.2574 -0.0079,0.047 -0.05647,0.081 -0.06435,0.1287 -0.01411,0.085 0.01411,0.1727 0,0.2574 -0.0079,0.047 -0.04918,0.083 -0.06435,0.1287 -0.02393,0.072 0,0.3699 0,0.4504"
       id="path4148"
       inkscape:connector-curvature="0" />
    <path
       style="fill:none;fill-rule:evenodd;stroke:#7a974e;stroke-width:1px;stroke-linecap:butt;stroke-linejoin:miter;stroke-opacity:1"
       d="m 19.240669,1022.1177 c 0,0.193 0,0.3861 0,0.5791 0,0.043 0.01357,0.088 0,0.1287 -0.01517,0.045 -0.04918,0.083 -0.06435,0.1287 -0.02035,0.061 0.02035,0.132 0,0.1931 -0.0096,0.029 -0.04752,0.039 -0.06435,0.064 -0.0266,0.04 -0.04918,0.083 -0.06435,0.1287 -0.0068,0.02 0.01517,0.049 0,0.064 -0.01517,0.015 -0.04918,-0.015 -0.06435,0 -0.03034,0.03 0.03034,0.098 0,0.1287 -0.01517,0.015 -0.04517,-0.01 -0.06435,0 -0.02713,0.014 -0.03722,0.051 -0.06435,0.064 -0.09929,0.05 -0.07036,-0.058 -0.19305,0.064"
       id="path4150"
       inkscape:connector-curvature="0" />
    <path
       style="fill:none;fill-rule:evenodd;stroke:#7a974e;stroke-width:1px;stroke-linecap:butt;stroke-linejoin:miter;stroke-opacity:1"
       d="m 32.175032,1015.2966 c 0,0.8525 0.0407,0.054 -0.06435,0.5791 -0.01683,0.084 0.03837,0.1807 0,0.2574 -0.0096,0.019 -0.05476,-0.019 -0.06435,0 -0.02574,0.052 0.02574,0.1416 0,0.1931 -0.133905,0.2678 0.0044,-0.069 -0.1287,0.064 -0.0858,0.086 0.10725,0.064 -0.06435,0.064"
       id="path4152"
       inkscape:connector-curvature="0" />
    <path
       style="fill:none;fill-rule:evenodd;stroke:#7a974e;stroke-width:1px;stroke-linecap:butt;stroke-linejoin:miter;stroke-opacity:1"
       d="m 28.957529,1034.7303 c -0.06243,0.121 0.03121,0.2612 0,0.3861 -0.01163,0.046 -0.0429,0.086 -0.06435,0.1287 -0.02145,0.064 -0.05105,0.1265 -0.06435,0.193 -0.02975,0.1488 -0.02756,0.3033 -0.06435,0.4505 -0.206129,0.8245 -0.05229,0.028 -0.19305,0.4504 -0.02797,0.084 -0.0248,0.1783 -0.06435,0.2574 -0.02713,0.054 -0.0858,0.086 -0.128701,0.1287 -0.0429,0.043 -0.07822,0.095 -0.1287,0.1287 -0.01785,0.012 -0.0429,0 -0.06435,0 -0.0429,0.021 -0.08879,0.038 -0.1287,0.064 -0.158469,0.1056 0.05243,0.1287 -0.19305,0.1287"
       id="path4154"
       inkscape:connector-curvature="0" />
    <path
       style="fill:none;fill-rule:evenodd;stroke:#7a974e;stroke-width:1px;stroke-linecap:butt;stroke-linejoin:miter;stroke-opacity:1"
       d="m 9.5238095,1041.7444 c 0.047278,0.039 -0.036072,0.7644 0,0.8366 0.027132,0.054 0.1015678,0.074 0.1287002,0.1287 0.019185,0.038 -0.013566,0.088 0,0.1287 0.019185,0.058 0.1015677,0.074 0.1287001,0.1287 0.00959,0.019 -0.015167,0.049 0,0.064 0.015167,0.015 0.0429,0 0.06435,0"
       id="path4156"
       inkscape:connector-curvature="0" />
    <path
       style="fill:none;fill-rule:evenodd;stroke:#7a974e;stroke-width:1px;stroke-linecap:butt;stroke-linejoin:miter;stroke-opacity:1"
       d="m 42.213642,1044.3184 c -0.09361,0.4014 -0.06435,0.8139 -0.06435,1.2227 0,0.059 0.02398,0.2738 0,0.3217 -0.02713,0.054 -0.101568,0.074 -0.1287,0.1287 -0.0096,0.019 0.01517,0.049 0,0.064 -0.01517,0.015 -0.0429,0 -0.06435,0"
       id="path4158"
       inkscape:connector-curvature="0" />
    <path
       style="fill:none;fill-rule:evenodd;stroke:#7a974e;stroke-width:1px;stroke-linecap:butt;stroke-linejoin:miter;stroke-opacity:1"
       d="m 18.146718,1045.4767 c 0,0.2145 0,0.429 0,0.6435 0,0.064 -0.01561,0.1307 0,0.1931 0.01163,0.046 0.0429,0.086 0.06435,0.1287 0.02145,0.086 0.04981,0.1702 0.06435,0.2574 0.0071,0.042 -0.01593,0.089 0,0.1287 0.103084,0.2577 0.257401,0.1999 0.257401,0.5148"
       id="path4160"
       inkscape:connector-curvature="0" />
    <path
       style="fill:none;fill-rule:evenodd;stroke:#7a974e;stroke-width:1px;stroke-linecap:butt;stroke-linejoin:miter;stroke-opacity:1"
       d="m 7.0785071,1009.312 c 0,0.3647 0,0.7293 0,1.094 0,0.066 -0.021089,0.3006 0,0.3217 0.0858,0.086 0.06435,-0.1072 0.06435,0.064"
       id="path4162"
       inkscape:connector-curvature="0" />
    <path
       style="fill:none;fill-rule:evenodd;stroke:#7a974e;stroke-width:1px;stroke-linecap:butt;stroke-linejoin:miter;stroke-opacity:1"
       d="m 44.337194,1007.6389 c -0.0429,0.1502 -0.0858,0.3003 -0.1287,0.4505 -0.02145,0.021 -0.05078,0.037 -0.06435,0.064 -0.03033,0.061 -0.03763,0.1307 -0.06435,0.1931 -0.03779,0.088 -0.09837,0.1664 -0.1287,0.2574 -0.02713,0.081 0.03837,0.1806 0,0.2574 -0.0096,0.019 -0.04516,-0.01 -0.06435,0 -0.02713,0.014 -0.0429,0.043 -0.06435,0.064"
       id="path4164"
       inkscape:connector-curvature="0" />
    <path
       style="fill:none;fill-rule:evenodd;stroke:#7a974e;stroke-width:1px;stroke-linecap:butt;stroke-linejoin:miter;stroke-opacity:1"
       d="m 37.709138,1027.3944 c 0,0.2675 0.0141,0.3558 -0.06435,0.6435 -0.03039,0.1114 -0.100685,0.2097 -0.1287,0.3217 -0.03679,0.1472 -0.05062,0.2994 -0.06435,0.4505 -0.0089,0.098 0.01,0.6335 0,0.6435 -0.01517,0.015 -0.0429,0 -0.06435,0 -0.02145,0.021 -0.0429,0.043 -0.06435,0.064"
       id="path4166"
       inkscape:connector-curvature="0" />
    <path
       style="fill:none;fill-rule:evenodd;stroke:#749942;stroke-width:1px;stroke-linecap:butt;stroke-linejoin:miter;stroke-opacity:1"
       d="m 19.240669,1033.2502 c 0,0.3861 0,0.7722 0,1.1583 0,0.078 0.02431,0.3132 0,0.3861 -0.09459,0.2838 -0.0072,0.068 -0.1287,0.1287 -0.02713,0.014 -0.03722,0.051 -0.06435,0.064 -0.05148,0.026 -0.14157,-0.026 -0.19305,0 -0.02713,0.014 -0.0429,0.086 -0.06435,0.064 -0.02145,-0.021 0.06435,-0.095 0.06435,-0.064 0,0.048 -0.04918,0.083 -0.06435,0.1287 -0.01357,0.041 0,0.1716 0,0.1287 0,-0.043 -0.01919,-0.1671 0,-0.1287 0.03955,0.079 0.0315,0.1753 0.06435,0.2574 0.01127,0.028 0.05078,0.037 0.06435,0.064 0.0096,0.019 -0.0096,0.045 0,0.064 0.02713,0.054 0.0858,0.086 0.1287,0.1287"
       id="path4168"
       inkscape:connector-curvature="0" />
    <path
       style="fill:none;fill-rule:evenodd;stroke:#58a229;stroke-width:1px;stroke-linecap:butt;stroke-linejoin:miter;stroke-opacity:1"
       d="m 22.393822,1008.2181 c 0,0.3217 0,0.6435 0,0.9652 0,0.086 -0.02081,0.1742 0,0.2574 0.0074,0.029 0.05699,0.035 0.06435,0.064 0.03121,0.1248 -0.0407,0.264 0,0.3861 0.0068,0.02 0.04918,-0.015 0.06435,0 0.01517,0.015 -0.01517,0.049 0,0.064 0.02975,0.03 0.154197,-0.019 0.19305,0 0.0429,0.021 0.1716,0.1502 0.19305,0.1931 0.0036,0.01 0.0036,0.3145 0,0.3217 -0.133905,0.2678 0.0044,-0.069 -0.1287,0.064 -0.03034,0.03 0,0.086 0,0.1287"
       id="path4172"
       inkscape:connector-curvature="0" />
    <path
       style="fill:none;fill-rule:evenodd;stroke:#58a229;stroke-width:1px;stroke-linecap:butt;stroke-linejoin:miter;stroke-opacity:1"
       d="m 31.467181,1007.6389 c 0,0.3432 0,0.6864 0,1.0296 0,0.072 0.02254,0.1898 0,0.2574 -0.01517,0.046 -0.03774,0.089 -0.06435,0.1287 -0.02145,0.021 -0.0429,0.043 -0.06435,0.064 -0.02145,0 -0.04918,-0.015 -0.06435,0 -0.03034,0.03 0.01919,0.09 0,0.1287 -0.01357,0.027 -0.05476,0.035 -0.06435,0.064 -0.01357,0.041 0.01919,0.09 0,0.1287 -0.0096,0.019 -0.04918,-0.015 -0.06435,0 -0.03033,0.03 0.03034,0.098 0,0.1287 -0.0057,0.01 -0.248568,0 -0.06435,0"
       id="path4174"
       inkscape:connector-curvature="0" />
    <path
       style="fill:none;fill-rule:evenodd;stroke:#58a229;stroke-width:1px;stroke-linecap:butt;stroke-linejoin:miter;stroke-opacity:1"
       d="m 5.9202059,1037.6904 c 0.02145,0.1287 0.049942,0.2564 0.06435,0.3861 0.014212,0.1279 0,0.2574 0,0.3861 0,0.2359 0,0.4719 0,0.7078 0,0.1073 -0.026012,0.2177 0,0.3218 0.077686,0.3107 0.03058,-0 0.1287001,0.193 0.019185,0.038 -0.019185,0.09 0,0.1287 0.013566,0.027 0.037218,0.051 0.06435,0.064 0.019186,0.01 0.049183,-0.015 0.06435,0 0.015168,0.015 0.02145,0.064 0,0.064 -0.02145,0 0,-0.043 0,-0.064"
       id="path4176"
       inkscape:connector-curvature="0" />
    <path
       style="fill:none;fill-rule:evenodd;stroke:#58a229;stroke-width:1px;stroke-linecap:butt;stroke-linejoin:miter;stroke-opacity:1"
       d="m 28.249678,1041.8088 c -0.55769,1.3013 -0.0594,-0.025 -0.19305,0.6435 -0.01881,0.094 -0.09307,0.1683 -0.1287,0.2574 -0.02519,0.063 -0.02672,0.1366 -0.06435,0.193 -0.05048,0.076 -0.146229,0.1151 -0.19305,0.1931 -0.02207,0.037 0.01357,0.088 0,0.1287 -0.06695,0.2008 -0.0429,-0.022 -0.1287,0.064 -0.0858,0.086 0.10725,0.064 -0.06435,0.064"
       id="path4178"
       inkscape:connector-curvature="0" />
    <path
       style="fill:none;fill-rule:evenodd;stroke:#58a229;stroke-width:1px;stroke-linecap:butt;stroke-linejoin:miter;stroke-opacity:1"
       d="m 6.4993565,1017.0984 c -0.053779,0.2589 0.097703,0.3955 0.1287001,0.6435 0.010642,0.085 -0.014105,0.1727 0,0.2574 0.00789,0.047 0.054944,0.082 0.06435,0.1287 0.016827,0.084 -0.027132,0.176 0,0.2574 0.015167,0.045 0.056465,0.081 0.06435,0.1287 0.014105,0.085 0,0.1716 0,0.2574 0,0.021 -0.015167,0.049 0,0.064 0.033915,0.034 0.094785,0.031 0.1287001,0.064 0.030335,0.03 -0.013566,0.088 0,0.1287 0.015167,0.045 0.049183,0.083 0.06435,0.1287 0.00871,0.026 0.012113,0.1688 0,0.193 -0.029306,0.059 -0.2227976,0.2343 -0.2574002,0.2574 -0.017848,0.012 -0.049183,-0.015 -0.06435,0 -0.033915,0.034 -0.037745,0.089 -0.06435,0.1287 -0.016827,0.025 -0.0429,0.043 -0.06435,0.064"
       id="path4180"
       inkscape:connector-curvature="0" />
    <path
       style="fill:none;fill-rule:evenodd;stroke:#58a229;stroke-width:1px;stroke-linecap:butt;stroke-linejoin:miter;stroke-opacity:1"
       d="m 40.669241,1032.478 c 0,0.6487 0.05756,0.1468 -0.1287,0.6435 -0.09036,0.241 -0.06435,0.3151 -0.06435,0.5792 0,0.024 0.0219,0.2779 0,0.3217 -0.01357,0.027 -0.05078,0.037 -0.06435,0.064 -0.104647,0.2093 -0.01624,0.1531 -0.1287,0.3217 -0.1287,0.1931 0,-0.1287 -0.19305,0.1931 -0.0349,0.058 -0.05105,0.1265 -0.06435,0.193 -0.0072,0.036 -0.0081,0.6917 0,0.7079 0.02713,0.054 0.0858,0.086 0.1287,0.1287"
       id="path4182"
       inkscape:connector-curvature="0" />
    <path
       style="fill:none;fill-rule:evenodd;stroke:#58a229;stroke-width:1px;stroke-linecap:butt;stroke-linejoin:miter;stroke-opacity:1"
       d="m 26.383526,1023.7264 c 0.08823,0.2951 0.06435,0.5977 0.06435,0.9009 0,0.064 0.02878,0.1355 0,0.1931 -0.0096,0.019 -0.04918,-0.015 -0.06435,0 -0.0039,0 0,0.5162 0,0.5791"
       id="path4184"
       inkscape:connector-curvature="0" />
    <path
       style="fill:none;fill-rule:evenodd;stroke:#58a229;stroke-width:1px;stroke-linecap:butt;stroke-linejoin:miter;stroke-opacity:1"
       d="m 42.664093,1017.9349 c -0.01081,0.043 -0.09537,0.2931 -0.06435,0.3861 0.0096,0.029 0.05308,0.036 0.06435,0.064 0.03285,0.082 0.04005,0.1723 0.06435,0.2574 0.04841,0.1694 0.09945,0.2944 0.19305,0.4504 0.110439,0.1841 0.03154,-0.098 0.1287,0.1931 0.01809,0.054 -0.02541,0.1422 0,0.193 0.07952,0.1591 0.06435,-0.022 0.06435,0.1287"
       id="path4186"
       inkscape:connector-curvature="0" />
    <path
       style="fill:none;fill-rule:evenodd;stroke:#58a229;stroke-width:1px;stroke-linecap:butt;stroke-linejoin:miter;stroke-opacity:1"
       d="m 9.009009,1005.7084 c -0.00791,0.1535 0.1648308,0.245 0.1930502,0.3861 0.01262,0.063 -0.028778,0.1355 0,0.1931 0.02145,0.043 0.1020947,0.024 0.1287001,0.064 0.023797,0.036 -0.013566,0.088 0,0.1287 0.019185,0.058 0.1015678,0.074 0.1287002,0.1287 0.030335,0.061 0.026724,0.1366 0.06435,0.1931 0.011898,0.018 0.049183,-0.015 0.06435,0 0.033915,0.034 0.030435,0.095 0.06435,0.1287 0.015167,0.015 0.0429,0 0.06435,0 0,0.021 -0.015167,0.049 0,0.064 0.015167,0.015 0.049183,-0.015 0.06435,0 0.015167,0.015 -0.015167,0.049 0,0.064 0.015167,0.015 0.049183,-0.015 0.06435,0 0.06348,0.063 -0.1318582,0.1287 0.06435,0.1287"
       id="path4188"
       inkscape:connector-curvature="0" />
    <path
       style="fill:none;fill-rule:evenodd;stroke:#58a229;stroke-width:1px;stroke-linecap:butt;stroke-linejoin:miter;stroke-opacity:1"
       d="m 9.3307593,1047.5359 c -0.1690328,0.1569 -0.1933888,0.3995 -0.3217503,0.5792 -0.052895,0.074 -0.1425698,0.1173 -0.1930502,0.193 -0.037626,0.057 -0.023652,0.1388 -0.06435,0.1931 -0.2188326,0.2918 -0.049415,-0.2229 -0.2574003,0.193 -0.018657,0.037 0,0.4983 0,0.5792"
       id="path4190"
       inkscape:connector-curvature="0" />
    <path
       style="fill:none;fill-rule:evenodd;stroke:#58a229;stroke-width:1px;stroke-linecap:butt;stroke-linejoin:miter;stroke-opacity:1"
       d="m 10.42471,1029.711 c 0,0.4504 0,0.9009 0,1.3513 0,0.063 -0.02114,0.3438 0,0.3861 0.01357,0.027 0.05078,0.037 0.06435,0.064 0.02164,0.043 0,0.3793 0,0.4504 0,0.043 0.03033,0.098 0,0.1287 -0.01517,0.015 -0.04918,-0.015 -0.06435,0 -0.01517,0.015 0.01517,0.049 0,0.064 -0.0052,0.01 -0.5235126,0 -0.5791502,0"
       id="path4192"
       inkscape:connector-curvature="0" />
    <path
       style="fill:none;fill-rule:evenodd;stroke:#58a229;stroke-width:1px;stroke-linecap:butt;stroke-linejoin:miter;stroke-opacity:1"
       d="m 17.310167,1015.4253 c -0.02145,0.1072 -0.04637,0.2138 -0.06435,0.3217 -0.01784,0.1071 0.03031,0.057 0.06435,0.1931 0.0104,0.042 -0.01919,0.09 0,0.1287 0.106082,0.2121 0.321751,0.1435 0.321751,0.5148 0,0.043 0.03034,0.098 0,0.1287 -0.01517,0.015 -0.04918,-0.015 -0.06435,0 -0.01517,0.015 0.0096,0.045 0,0.064 -0.05148,0.103 -0.205921,0.1545 -0.257401,0.2574 -0.0096,0.019 0.01517,0.049 0,0.064 -0.01517,0.015 -0.04918,-0.015 -0.06435,0 -0.03033,0.03 0.03034,0.098 0,0.1287 -0.01517,0.015 -0.06435,0.021 -0.06435,0 0,-0.021 0.0429,0 0.06435,0"
       id="path4194"
       inkscape:connector-curvature="0" />
  </g>
</svg>
